<svg xmlns="http://www.w3.org/2000/svg" xmlns:xlink="http://www.w3.org/1999/xlink" width="2000" zoomAndPan="magnify" viewBox="0 0 1500 1499.999933" height="2000" preserveAspectRatio="xMidYMid meet" version="1.0"><defs><g/><clipPath id="4ab66b518a"><rect x="0" width="410" y="0" height="350"/></clipPath></defs><g transform="matrix(1, 0, 0, 1, 546, 574)"><g clip-path="url(#4ab66b518a)"><g fill="#ffffff" fill-opacity="1"><g transform="translate(1.252304, 249.410452)"><g><path d="M 92.625 0 C 83.238281 0 74.988281 -2.085938 67.875 -6.265625 C 60.757812 -10.453125 55.1875 -16.0625 51.15625 -23.09375 C 47.125 -30.132812 45.109375 -37.984375 45.109375 -46.640625 L 45.109375 -123.203125 L 3.296875 -123.203125 L 3.296875 -154.015625 L 123.65625 -154.015625 L 123.65625 -123.203125 L 82.0625 -123.203125 L 82.0625 -43.34375 C 82.0625 -39.96875 83.234375 -37.03125 85.578125 -34.53125 C 87.929688 -32.039062 90.867188 -30.796875 94.390625 -30.796875 L 106.484375 -30.796875 L 106.484375 0 Z M 92.625 0 "/></g></g></g><g fill="#ffffff" fill-opacity="1"><g transform="translate(126.645232, 249.410452)"><g><path d="M 92.625 0 C 83.238281 0 74.988281 -2.085938 67.875 -6.265625 C 60.757812 -10.453125 55.1875 -16.0625 51.15625 -23.09375 C 47.125 -30.132812 45.109375 -37.984375 45.109375 -46.640625 L 45.109375 -123.203125 L 3.296875 -123.203125 L 3.296875 -154.015625 L 123.65625 -154.015625 L 123.65625 -123.203125 L 82.0625 -123.203125 L 82.0625 -43.34375 C 82.0625 -39.96875 83.234375 -37.03125 85.578125 -34.53125 C 87.929688 -32.039062 90.867188 -30.796875 94.390625 -30.796875 L 106.484375 -30.796875 L 106.484375 0 Z M 92.625 0 "/></g></g></g><g fill="#ffffff" fill-opacity="1"><g transform="translate(243.23781, 249.410452)"><g><path d="M 0 0 L 49.9375 -136.1875 C 52.4375 -142.9375 56.546875 -148.035156 62.265625 -151.484375 C 67.984375 -154.929688 74.4375 -156.65625 81.625 -156.65625 C 88.8125 -156.65625 95.265625 -155.003906 100.984375 -151.703125 C 106.703125 -148.398438 110.8125 -143.300781 113.3125 -136.40625 L 163.46875 0 L 123.65625 0 L 113.96875 -29.703125 L 48.625 -29.703125 L 38.5 0 Z M 58.078125 -60.28125 L 104.5 -60.28125 L 84.921875 -121.671875 C 84.628906 -122.546875 84.226562 -123.164062 83.71875 -123.53125 C 83.207031 -123.90625 82.582031 -124.09375 81.84375 -124.09375 C 81.113281 -124.09375 80.488281 -123.867188 79.96875 -123.421875 C 79.457031 -122.984375 79.128906 -122.398438 78.984375 -121.671875 Z M 58.078125 -60.28125 "/></g></g></g></g></g></svg>