<svg xmlns="http://www.w3.org/2000/svg" xmlns:xlink="http://www.w3.org/1999/xlink" width="2000" zoomAndPan="magnify" viewBox="0 0 1500 1499.999933" height="2000" preserveAspectRatio="xMidYMid meet" version="1.0"><defs><g/><clipPath id="bd5ed15d45"><path d="M 321.863281 321.863281 L 1178.363281 321.863281 L 1178.363281 1178.363281 L 321.863281 1178.363281 Z M 321.863281 321.863281 " clip-rule="nonzero"/></clipPath><clipPath id="e6696af261"><rect x="0" width="482" y="0" height="412"/></clipPath></defs><g clip-path="url(#bd5ed15d45)"><path fill="#ffffff" d="M 749.996094 1178.128906 C 513.46875 1178.128906 321.863281 985.207031 321.863281 749.996094 C 321.863281 514.789062 513.46875 321.863281 749.996094 321.863281 C 986.527344 321.863281 1178.128906 513.46875 1178.128906 749.996094 C 1178.128906 986.527344 985.207031 1178.128906 749.996094 1178.128906 Z M 749.996094 348.292969 C 528.003906 348.292969 348.292969 528.003906 348.292969 749.996094 C 348.292969 971.992188 528.003906 1151.703125 749.996094 1151.703125 C 971.992188 1151.703125 1151.703125 971.992188 1151.703125 749.996094 C 1151.703125 528.003906 970.671875 348.292969 749.996094 348.292969 Z M 749.996094 348.292969 " fill-opacity="1" fill-rule="nonzero"/></g><g transform="matrix(1, 0, 0, 1, 510, 543)"><g clip-path="url(#e6696af261)"><g fill="#ffffff" fill-opacity="1"><g transform="translate(1.604813, 293.317757)"><g><path d="M 108.90625 0 C 97.863281 0 88.160156 -2.457031 79.796875 -7.375 C 71.441406 -12.289062 64.890625 -18.882812 60.140625 -27.15625 C 55.398438 -35.4375 53.03125 -44.664062 53.03125 -54.84375 L 53.03125 -144.859375 L 3.875 -144.859375 L 3.875 -181.078125 L 145.375 -181.078125 L 145.375 -144.859375 L 96.484375 -144.859375 L 96.484375 -50.96875 C 96.484375 -47 97.863281 -43.546875 100.625 -40.609375 C 103.382812 -37.679688 106.835938 -36.21875 110.984375 -36.21875 L 125.203125 -36.21875 L 125.203125 0 Z M 108.90625 0 "/></g></g></g><g fill="#ffffff" fill-opacity="1"><g transform="translate(149.044543, 293.317757)"><g><path d="M 108.90625 0 C 97.863281 0 88.160156 -2.457031 79.796875 -7.375 C 71.441406 -12.289062 64.890625 -18.882812 60.140625 -27.15625 C 55.398438 -35.4375 53.03125 -44.664062 53.03125 -54.84375 L 53.03125 -144.859375 L 3.875 -144.859375 L 3.875 -181.078125 L 145.375 -181.078125 L 145.375 -144.859375 L 96.484375 -144.859375 L 96.484375 -50.96875 C 96.484375 -47 97.863281 -43.546875 100.625 -40.609375 C 103.382812 -37.679688 106.835938 -36.21875 110.984375 -36.21875 L 125.203125 -36.21875 L 125.203125 0 Z M 108.90625 0 "/></g></g></g><g fill="#ffffff" fill-opacity="1"><g transform="translate(286.13663, 293.317757)"><g><path d="M 0 0 L 58.71875 -160.125 C 61.65625 -168.0625 66.484375 -174.054688 73.203125 -178.109375 C 79.929688 -182.160156 87.519531 -184.1875 95.96875 -184.1875 C 104.425781 -184.1875 112.015625 -182.242188 118.734375 -178.359375 C 125.460938 -174.484375 130.289062 -168.492188 133.21875 -160.390625 L 192.203125 0 L 145.375 0 L 134 -34.921875 L 57.171875 -34.921875 L 45.265625 0 Z M 68.296875 -70.875 L 122.875 -70.875 L 99.859375 -143.046875 C 99.515625 -144.085938 99.039062 -144.820312 98.4375 -145.25 C 97.832031 -145.6875 97.097656 -145.90625 96.234375 -145.90625 C 95.367188 -145.90625 94.632812 -145.644531 94.03125 -145.125 C 93.425781 -144.601562 93.039062 -143.910156 92.875 -143.046875 Z M 68.296875 -70.875 "/></g></g></g></g></g></svg>