<svg xmlns="http://www.w3.org/2000/svg" width="32" height="32" viewBox="0 0 1500 1500" fill="none"><circle cx="750" cy="750" r="415" stroke="#D94F2B" stroke-width="60"/><circle cx="750" cy="750" r="400" stroke="#D94F2B" stroke-width="30" stroke-opacity="0.2"/><g transform="translate(560, 600) scale(1.5)"><path d="M 92.625 0 C 83.23 -2.08 74.98 -6.26 67.87 -6.26 C 60.75 -10.45 55.18 -16.06 51.15 -23.09 C 47.12 -30.13 45.10 -37.98 45.10 -46.64 L 45.10 -123.2 L 3.29 -123.2 L 3.29 -154 L 123.65 -154 L 123.65 -123.2 L 82.06 -123.2 L 82.06 -43.34 C 82.06 -39.96 83.23 -37.03 85.57 -34.53 C 87.92 -32.03 90.86 -30.79 94.39 -30.79 L 106.48 -30.79 L 106.48 0 Z" fill="#D94F2B"/></g></svg>
